# xmcd
#
# Track frame offsets:
#	150
#	11689
#	21271
#	35008
#	46289
#	59325
#	71211
#	84537
#	96527
#	106684
#
# Disc length: 1590 seconds
#
# Revision: 1
# Processed by: cddbd v1.5.1PL0 Copyright (c) Steve Scherf et al.
# Submitted via: audiograbber 1.83.01
#
DISCID=8506340a
DTITLE=Sherri Jerrico - Country Heartaches
DYEAR=1900
DGENRE=Country
TTITLE0=Before the Next Teardrop Falls
TTITLE1=A Friend of Yours and Mine
TTITLE2=Raggedy Ann
TTITLE3=If You Can Fake It I Might Make It
TTITLE4=My Mind Can't Control (What My Body Wants to Do)
TTITLE5=Turn Me On Or Turn Me Loose
TTITLE6=Houston Rain
TTITLE7=Love Me Back Together Again
TTITLE8=Take Your Time
TTITLE9=Clothes That Say I Slip Around
EXTD=
EXTT0=
EXTT1=
EXTT2=
EXTT3=
EXTT4=
EXTT5=
EXTT6=
EXTT7=
EXTT8=
EXTT9=
PLAYORDER=
